<?xml version="1.0" encoding="UTF-8"?>
<svg width="25px" height="25px" viewBox="0 0 25 25" version="1.1" xmlns="http://www.w3.org/2000/svg" xmlns:xlink="http://www.w3.org/1999/xlink">
    <!-- Generator: Sketch 56.2 (81672) - https://sketch.com -->
    <title>expert</title>
    <desc>Created with Sketch.</desc>
    <g id="Symbols" stroke="none" stroke-width="1" fill="none" fill-rule="evenodd">
        <g id="Module/usp-banner" transform="translate(-566.000000, -11.000000)" fill-rule="nonzero">
            <g id="expert" transform="translate(566.000000, 11.000000)">
                <path d="M22.1584961,3.75029297 L20.3770996,1.96884766 C20.1862305,1.77802734 19.8768066,1.77802734 19.6859863,1.96884766 C19.495166,2.15966797 19.4951172,2.46914063 19.6859863,2.65996094 L21.4673828,4.44140625 C21.5628418,4.53686523 21.6878906,4.58457031 21.8129395,4.58457031 C21.9379883,4.58457031 22.0630859,4.53681641 22.1584961,4.44140625 C22.3493652,4.25053711 22.3494141,3.94111328 22.1584961,3.75029297 Z" id="Path" fill="#000000"></path>
                <path d="M22.7187012,4.5128418 C22.0897949,4.5128418 22.0887695,5.4902832 22.7187012,5.4902832 C23.3476562,5.4902832 23.3486816,4.5128418 22.7187012,4.5128418 Z" id="Path" fill="#000000"></path>
                <path d="M24.3444824,3.21757813 L21.7828125,0.656396484 C21.3599121,0.233105469 20.7974609,0 20.1990723,0 C19.6006836,0 19.0382324,0.233105469 18.6153809,0.65625 L17.144043,2.12705078 C17.1439453,2.12714844 17.1438965,2.12719727 17.1437988,2.12729492 L1.98789062,17.2832031 C1.92226562,17.348877 1.87963867,17.4288086 1.85917969,17.5129883 L0.017578125,24.3847656 C-0.0276367188,24.553418 0.0206054687,24.7333496 0.144042969,24.8568848 C0.236914062,24.949707 0.36171875,25 0.489599609,25 C0.531787109,25 0.574316406,24.9945312 0.616064453,24.9833496 L7.4980957,23.1389648 C7.49951172,23.1385742 7.50078125,23.1379395 7.50219727,23.1375977 C7.52133789,23.1323242 7.5402832,23.1260254 7.55878906,23.1183594 C7.56005859,23.1178223 7.56123047,23.1171875 7.56245117,23.1166504 C7.57895508,23.109668 7.59511719,23.1015137 7.6109375,23.092627 C7.61533203,23.0901367 7.61962891,23.0875488 7.62392578,23.0849609 C7.63662109,23.0772949 7.64897461,23.0689453 7.66113281,23.0600098 C7.66523437,23.0569824 7.66943359,23.0541504 7.67338867,23.0509766 C7.68847656,23.0391113 7.70322266,23.0265137 7.71708984,23.0125488 L7.71713867,23.0125 L22.8727539,7.85737305 C22.8728516,7.85727539 22.8729492,7.85722656 22.872998,7.85712891 L24.3445801,6.38549805 C25.2172852,5.51206055 25.2172852,4.09106445 24.3444824,3.21757813 Z M17.4893555,3.16401367 L19.3174316,4.99223633 L4.85283203,19.4568848 L3.0246582,17.6287598 L17.4893555,3.16401367 Z M1.18081055,23.8200684 L1.66474609,22.0143555 L2.98652344,23.3361328 L1.18081055,23.8200684 Z M4.07666016,23.0439941 L1.95688477,20.9242188 L2.58691406,18.5733887 L4.50683594,20.4933105 C4.50693359,20.4934082 4.50703125,20.4935547 4.50717773,20.4937012 C4.50732422,20.4938477 4.50742187,20.4938965 4.50756836,20.494043 L6.42753906,22.4140137 L4.07666016,23.0439941 Z M7.37163086,21.9757813 L5.54394531,20.1480957 L20.0085449,5.68349609 L21.836377,7.51147461 L7.37163086,21.9757813 Z M23.6534668,5.69443359 L22.5275879,6.82036133 L20.3565918,4.64912109 C20.3558105,4.64833984 20.355127,4.64746094 20.3543457,4.64663086 C20.3535645,4.64580078 20.3526855,4.64516602 20.3518555,4.64438477 L18.1806152,2.47294922 L19.3066406,1.34726562 C19.5449707,1.10878906 19.8619141,0.977392578 20.1990723,0.977392578 C20.5362305,0.977392578 20.8531738,1.10874023 21.0916992,1.34746094 L23.6533691,3.90859375 C24.1454102,4.40097656 24.1454102,5.20214844 23.6534668,5.69443359 Z" id="Shape" fill="#3D4246"></path>
            </g>
        </g>
    </g>
</svg>