<?xml version="1.0" encoding="UTF-8"?>
<svg width="25px" height="24px" viewBox="0 0 25 24" version="1.1" xmlns="http://www.w3.org/2000/svg" xmlns:xlink="http://www.w3.org/1999/xlink">
    <!-- Generator: Sketch 56.2 (81672) - https://sketch.com -->
    <title>quality</title>
    <desc>Created with Sketch.</desc>
    <g id="Symbols" stroke="none" stroke-width="1" fill="none" fill-rule="evenodd">
        <g id="Module/usp-banner" transform="translate(-140.000000, -10.000000)" fill="#3D4246" fill-rule="nonzero">
            <g id="quality" transform="translate(140.000000, 10.399822)">
                <path d="M22.1803711,11.5870167 C22.4582031,12.0079167 22.4147949,12.5634625 22.0748047,12.9380271 L13.3500977,22.5497271 C13.1341797,22.7875854 12.8241211,22.9240042 12.4995605,22.9240042 C12.4995117,22.9240042 12.4995605,22.9240042 12.4995117,22.9240042 C12.1749023,22.9240042 11.8649414,22.7875375 11.6490234,22.5496792 L2.92529297,12.9385542 C2.58481445,12.5635583 2.54174805,12.0074375 2.82055664,11.58625 L5.54887695,7.46397917 C5.75976563,7.14533333 6.1168457,6.95505625 6.50410156,6.95505625 L18.5044434,6.95505625 C18.8922852,6.95505625 19.249707,7.1458125 19.460498,7.46527292 L22.1803711,11.5870167 Z M17.9534668,7.91334167 L13.3772949,7.91334167 L15.6660645,11.384425 L17.9534668,7.91334167 Z M14.7686523,11.7875 L12.4995117,8.34617292 L10.2303711,11.7875 L14.7686523,11.7875 Z M11.6217285,7.9134375 L7.05756836,7.9134375 L9.33925781,11.3749854 L11.6217285,7.9134375 Z M6.1546875,8.30803125 L3.85180664,11.7875 L8.44814453,11.7875 L6.1546875,8.30803125 Z M4.05805664,12.7458333 L11.5708008,21.0227188 L8.97236328,12.7458333 L4.05805664,12.7458333 Z M12.4995117,20.7260187 L15.004834,12.7458333 L9.99418945,12.7458333 L12.4995117,20.7260187 Z M13.4281738,21.0230062 L20.9414551,12.7458812 L16.026709,12.7458812 L13.4281738,21.0230062 Z M16.5634766,11.7875 L21.1492188,11.7875 L18.854834,8.31042708 L16.5634766,11.7875 Z M1.48110352,11.7875 C1.75073242,11.7875 1.96938477,12.0020229 1.96938477,12.2666667 C1.96938477,12.5313104 1.75073242,12.7458333 1.48110352,12.7458333 L0.48828125,12.7458333 C0.218652344,12.7458333 3.63709063e-13,12.5313104 3.63709063e-13,12.2666667 C3.63709063e-13,12.0020229 0.218652344,11.7875 0.48828125,11.7875 L1.48110352,11.7875 Z M24.5117187,11.7875 C24.7813477,11.7875 25,12.0020229 25,12.2666667 C25,12.5313104 24.7813477,12.7458333 24.5117187,12.7458333 L23.5188965,12.7458333 C23.2492676,12.7458333 23.0306152,12.5313104 23.0306152,12.2666667 C23.0306152,12.0020229 23.2492676,11.7875 23.5188965,11.7875 L24.5117187,11.7875 Z M21.3450195,3.59533125 C21.5356934,3.78249375 21.5356934,4.08585417 21.3450195,4.27296875 L19.7230957,5.86461667 C19.6277344,5.95815 19.502832,6.00496458 19.377832,6.00496458 C19.2528809,6.00496458 19.1279297,5.95819792 19.0325195,5.86461667 C18.8418457,5.67750208 18.8418457,5.37409375 19.0325195,5.18697917 L20.6544434,3.59533125 C20.8452148,3.40821667 21.1542969,3.40821667 21.3450195,3.59533125 Z M5.98857422,5.17845 C6.17924805,5.36551667 6.17924805,5.66897292 5.98857422,5.85603958 C5.89321289,5.94957292 5.76826172,5.9963875 5.64331055,5.9963875 C5.51835938,5.9963875 5.3934082,5.94962083 5.29804688,5.85603958 L3.67612305,4.26439167 C3.48544922,4.07727708 3.48544922,3.77386875 3.67612305,3.58675417 C3.86699219,3.39963958 4.17607422,3.39963958 4.36669922,3.58675417 L5.98857422,5.17845 Z M12.5124023,8.8817842e-16 C12.7820313,8.8817842e-16 13.0006836,0.214570833 13.0006836,0.479166667 L13.0006836,3.6018 C13.0006836,3.86644375 12.7820313,4.08096667 12.5124023,4.08096667 C12.2427246,4.08096667 12.0241211,3.86644375 12.0241211,3.6018 L12.0241211,0.479166667 C12.0241211,0.214522917 12.2427734,8.8817842e-16 12.5124023,8.8817842e-16 Z M12.857373,4.88400208 C12.9486816,4.973175 13.0004883,5.09675208 13.0004883,5.22277292 C13.0004883,5.34879375 12.9486816,5.47241875 12.857373,5.56154375 C12.7666016,5.65114792 12.640625,5.70193958 12.512207,5.70193958 C12.3837891,5.70193958 12.2578125,5.65114792 12.1669922,5.56154375 C12.076123,5.47241875 12.0239258,5.34927292 12.0239258,5.22277292 C12.0239258,5.09675208 12.0761719,4.97312708 12.1669922,4.88400208 C12.2578125,4.79487708 12.3837891,4.74360625 12.512207,4.74360625 C12.640625,4.74360625 12.7666016,4.79487708 12.857373,4.88400208 Z" id="Combined-Shape"></path>
            </g>
        </g>
    </g>
</svg>