<?xml version="1.0" encoding="UTF-8"?>
<svg width="25px" height="26px" viewBox="0 0 25 26" version="1.1" xmlns="http://www.w3.org/2000/svg" xmlns:xlink="http://www.w3.org/1999/xlink">
    <!-- Generator: Sketch 56.2 (81672) - https://sketch.com -->
    <title>service</title>
    <desc>Created with Sketch.</desc>
    <g id="Symbols" stroke="none" stroke-width="1" fill="none" fill-rule="evenodd">
        <g id="Module/usp-banner" transform="translate(-1052.000000, -10.000000)" fill-rule="nonzero">
            <g id="service" transform="translate(1052.000000, 10.051577)">
                <path d="M8.37480469,18.7785156 C8.18251953,18.5862793 7.87094727,18.5862793 7.67861328,18.7785156 L5.12382813,21.3333008 C4.9315918,21.5255371 4.9315918,21.837207 5.12382813,22.0294922 C5.2199707,22.1256348 5.34594727,22.1736816 5.471875,22.1736816 C5.59785156,22.1736816 5.72382813,22.1256348 5.81992188,22.0294922 L8.37475586,19.474707 C8.56704102,19.2824707 8.56704102,18.9708008 8.37480469,18.7785156 Z" id="Path" fill="#000000"></path>
                <path d="M8.93896484,17.7220703 C8.30551758,17.7220703 8.30444336,18.706543 8.93896484,18.706543 C9.57241211,18.706543 9.5734375,17.7220703 8.93896484,17.7220703 Z" id="Path" fill="#000000"></path>
                <path d="M24.8558105,5.33144531 L19.6685547,0.144189453 C19.5761719,0.0519042969 19.4510254,0 19.320459,0 C19.1898926,0 19.0647461,0.0519042969 18.9724121,0.144189453 L15.5491699,3.56743164 L15.5491211,3.56748047 C15.5491211,3.56748047 15.5491211,3.5675293 15.5490723,3.5675293 L12.1259277,6.99067383 C12.1259277,6.99067383 12.1258789,6.99072266 12.1258301,6.99077148 C12.1258301,6.99077148 12.1257813,6.99082031 12.1257324,6.99086914 L1.85576172,17.2608398 C1.85576172,17.2608398 1.85576172,17.2608887 1.85571289,17.2608887 L0.144140625,18.9724121 C0.0519042969,19.0647461 0,19.1899414 0,19.320459 C0,19.4509766 0.0519042969,19.5762207 0.144189453,19.6685059 L5.33149414,24.8558105 C5.42763672,24.9519531 5.55361328,25 5.67954102,25 C5.80551758,25 5.93144531,24.9519531 6.02758789,24.8558105 L24.8558105,6.02758789 C24.9480957,5.93530273 25,5.81005859 25,5.67954102 C25,5.54897461 24.9480957,5.4237793 24.8558105,5.33144531 Z M5.67954102,23.8115723 L1.18842773,19.320459 L2.20375977,18.305127 L3.06611328,19.1674805 C3.16225586,19.263623 3.28823242,19.3116699 3.41416016,19.3116699 C3.54013672,19.3116699 3.66606445,19.263623 3.76220703,19.1674805 C3.95444336,18.9752441 3.95444336,18.6635742 3.76220703,18.4712891 L2.89990234,17.6089355 L3.91552734,16.5933105 L5.48842773,18.1662109 C5.58457031,18.2623535 5.71054688,18.3104004 5.83647461,18.3104004 C5.96245117,18.3104004 6.08837891,18.2623047 6.18452148,18.1662109 C6.37675781,17.9739746 6.37675781,17.6623047 6.18452148,17.4700684 L4.61162109,15.897168 L5.62719727,14.8815918 L6.48955078,15.7439453 C6.58569336,15.8400879 6.71166992,15.8881348 6.83759766,15.8881348 C6.96352539,15.8881348 7.08950195,15.8400879 7.18564453,15.7439453 C7.37788086,15.551709 7.37788086,15.2400391 7.18564453,15.0477539 L6.32329102,14.1854004 L7.33867188,13.1700195 L8.91176758,14.7431641 C9.00791016,14.8393066 9.13388672,14.8873535 9.25981445,14.8873535 C9.38579102,14.8873535 9.51176758,14.8392578 9.60786133,14.7431641 C9.80009766,14.5509277 9.80009766,14.2392578 9.60786133,14.0470215 L8.0347168,12.473877 L9.05014648,11.4584473 L9.9125,12.320459 C10.0085937,12.4165527 10.1345703,12.4645508 10.2604492,12.4645508 C10.3864746,12.4645508 10.5124512,12.4164551 10.6085449,12.3203125 C10.8007324,12.1280273 10.8006836,11.8163574 10.6083984,11.6241211 L9.74619141,10.7623047 L10.7619629,9.7465332 L12.3351074,11.3196777 C12.43125,11.4158203 12.5572266,11.4638672 12.6831543,11.4638672 C12.809082,11.4638672 12.9351074,11.4158203 13.0312012,11.3196777 C13.2234375,11.1274414 13.2234375,10.8157715 13.0312012,10.6234863 L11.4580566,9.0503418 L12.4733887,8.03500977 L13.3357422,8.89736328 C13.4318848,8.99350586 13.5578613,9.04155273 13.6837891,9.04155273 C13.8097168,9.04155273 13.9357422,8.99345703 14.0318359,8.89736328 C14.2240723,8.70512695 14.2240723,8.39345703 14.0318359,8.2012207 L13.1698242,7.33886719 L14.1852051,6.32348633 L15.7583008,7.89663086 C15.8544434,7.99277344 15.9804199,8.04082031 16.1063477,8.04082031 C16.2323242,8.04082031 16.358252,7.99272461 16.4543945,7.89663086 C16.6466309,7.70439453 16.6466309,7.39272461 16.4543945,7.20048828 L14.88125,5.62729492 L15.8968262,4.61171875 L16.7589355,5.47382813 C16.8550781,5.5699707 16.9810547,5.61801758 17.1069824,5.61801758 C17.2329102,5.61801758 17.3588867,5.5699707 17.4550293,5.47382813 C17.6472656,5.2815918 17.6472656,4.96992188 17.4550293,4.77763672 L16.5930176,3.91552734 L17.6086426,2.89990234 L19.1817871,4.47304688 C19.2779297,4.56918945 19.4039063,4.61723633 19.529834,4.61723633 C19.6557617,4.61723633 19.7817871,4.56914063 19.8778809,4.47304688 C20.0701172,4.28081055 20.0701172,3.96914063 19.8778809,3.7769043 L18.3050781,2.20375977 L19.3204102,1.18842773 L23.8115234,5.67954102 L5.67954102,23.8115723 Z" id="Shape" fill="#3D4246"></path>
            </g>
        </g>
    </g>
</svg>